<?xml version="1.0" encoding="utf-8"?>
<!-- Generator: Adobe Illustrator 25.4.1, SVG Export Plug-In . SVG Version: 6.00 Build 0)  -->
<svg version="1.1" id="Ñëîé_1" xmlns="http://www.w3.org/2000/svg" xmlns:xlink="http://www.w3.org/1999/xlink" x="0px" y="0px"
	 viewBox="0 0 135 100" style="enable-background:new 0 0 135 100;" xml:space="preserve">
<style type="text/css">
	.st0{fill:#47BDC6;}
	.st1{fill:#EAE6D3;}
	.st2{fill:#F36849;}
</style>
<g>
	<g>
		<g>
			<path class="st0" d="M81.1,22.4l-1.5,2.4c1.6,3.8,2.6,8,2.6,12.4c0,17.4-14.2,31.6-31.6,31.6c-3.4,0-6.8-0.6-10-1.6
				c-0.8,0.5-1.6,1.1-2.5,1.6c4,1.5,8.2,2.4,12.5,2.4c18.7,0,33.9-15.2,33.9-33.9C84.5,31.9,83.3,26.9,81.1,22.4z"/>
			<path class="st0" d="M19,37.3C19.8,19.5,36.5,5.6,50,5.6c0.2,0,0.4,0,0.6,0c4.4,0.1,8.5,1.1,12.2,2.7l2.5-1.5
				c-4.4-2.1-9.4-3.4-14.6-3.5c-15-0.4-33.1,14.3-34,33.9c-0.2,4.4,0.6,8.8,2.2,12.9c0.6-0.9,1.1-1.7,1.6-2.5
				C19.3,44.2,18.8,40.8,19,37.3z"/>
			<path class="st0" d="M52.7,63.8c-0.5,0-0.9,0-1.4,0.1l-0.7,0l-0.7,0l-1.5-0.1l-0.7,0l-0.7-0.1c-0.4-0.1-0.9-0.1-1.3-0.2
				c-0.5,0.5-1.3,1.1-2.2,1.8l0.3,0.1c1,0.3,2.1,0.4,3.1,0.5l0.8,0.1l0.7,0l1.5,0.1l0.8,0l0.8,0c0.5,0,1-0.1,1.5-0.1
				c4-0.3,7.7-1.5,10.9-3.3c3.2-1.7,5.8-4,7.9-6.3c2.1-2.4,3.6-4.9,4.5-7.2c0.1-0.3,0.3-0.6,0.4-0.9c0.1-0.3,0.2-0.6,0.3-0.9
				c0.2-0.6,0.4-1.1,0.5-1.6c0.3-1.1,0.5-2,0.7-2.9c0.1-0.9,0.2-1.7,0.3-2.4c0.1-0.7,0-1.3,0.1-1.8c0-1,0-1.5,0-1.5s0,0.5-0.1,1.5
				c-0.1,0.5-0.1,1.1-0.2,1.7c-0.1,0.7-0.3,1.5-0.4,2.3c-0.3,0.8-0.5,1.8-0.8,2.8c-0.2,0.5-0.4,1-0.6,1.5c-0.1,0.3-0.2,0.5-0.3,0.8
				c-0.1,0.3-0.3,0.5-0.4,0.8c-1.1,2.2-2.7,4.5-4.7,6.7c-2.1,2.2-4.6,4.2-7.7,5.7C59.9,62.6,56.4,63.5,52.7,63.8z"/>
			<path class="st0" d="M39.9,12.1c0.3-0.1,0.5-0.2,0.8-0.3c0.5-0.2,1-0.4,1.5-0.6c1-0.3,2-0.6,2.8-0.8c0.9-0.2,1.7-0.3,2.3-0.4
				c0.7-0.1,1.3-0.1,1.7-0.2c1-0.1,1.5-0.1,1.5-0.1s-0.5,0-1.5,0c-0.5,0-1.1,0-1.8,0.1c-0.7,0.1-1.5,0.2-2.4,0.3
				c-0.9,0.2-1.9,0.4-2.9,0.7c-0.5,0.2-1.1,0.3-1.6,0.5c-0.3,0.1-0.6,0.2-0.9,0.3c-0.3,0.1-0.6,0.2-0.9,0.4
				c-2.4,0.9-4.8,2.5-7.2,4.5c-2.4,2-4.6,4.7-6.3,7.9c-1.7,3.2-2.9,6.9-3.3,10.9c-0.3,3-0.1,6.2,0.7,9.3c0.7-1,1.3-1.7,1.8-2.3
				c-0.4-2.3-0.6-4.6-0.4-7c0.3-3.6,1.2-7.1,2.8-10.2c1.5-3,3.5-5.6,5.7-7.7c2.2-2,4.5-3.6,6.7-4.7C39.4,12.3,39.6,12.2,39.9,12.1z"
				/>
		</g>
		<g>
			<path class="st1" d="M49.1,25.2c4.8-5.1,9-9.2,12.7-12.6c1.2-1.1,2.4-2.1,3.5-3.1c0.1-0.1,0.3-0.2,0.4-0.4l0,0L67,7.7l0.2-0.2
				l0,0l-0.3,0.2l-2.4,1.4l-29,17.6l12.1,0.1C48.1,26.2,48.6,25.7,49.1,25.2z"/>
			<path class="st1" d="M78.7,22c-0.1,0.1-0.2,0.2-0.3,0.3c-1,1.2-2,2.4-3.2,3.7c-3.3,3.7-7.5,7.9-12.6,12.7c-0.5,0.5-1,1-1.6,1.5
				l0.1,12.1l17.7-29.1l1.4-2.4l0.1-0.1l-0.1,0.1L78.7,22z"/>
			<path class="st1" d="M72.2,11.1c-0.1,0-0.1,0-0.2,0c-0.9,0-1.8,0.4-2.6,1c-0.1,0.1-0.3,0.2-0.4,0.3c-0.8,0.8-1.3,2-1.3,3.1
				c0,1.2,0.5,2.3,1.3,3.1c1.7,1.7,4.6,1.7,6.3,0c0.1-0.1,0.2-0.3,0.3-0.4c0.6-0.7,0.9-1.6,0.9-2.6c0,0,0-0.1,0-0.1
				c0-1.2-0.5-2.3-1.3-3.1C74.5,11.5,73.4,11.1,72.2,11.1z M75,17.4c-0.1,0.2-0.3,0.4-0.4,0.5c-1.3,1.3-3.4,1.3-4.7,0
				c-1.3-1.3-1.3-3.4,0-4.7c0.1-0.1,0.3-0.3,0.5-0.4c1-0.7,2.3-0.8,3.4-0.2c0.3,0.2,0.6,0.3,0.8,0.6c0.2,0.2,0.4,0.5,0.6,0.8
				C75.7,15,75.7,16.4,75,17.4z"/>
			<path class="st1" d="M74.5,25.5c1.2-1.3,2.2-2.5,3.2-3.7c0.1-0.1,0.1-0.2,0.2-0.2c0.6-0.7,1.1-1.3,1.6-2c7.2-9,8.4-13.8,8.3-16.1
				C87.7,1.7,86.9,1,86.9,1c0,0-0.1-0.1-0.1-0.1c0,0-0.6-0.9-2.5-0.9c-0.1,0-0.1,0-0.2,0c-2.4,0-7.2,1.3-16,8.4
				c-0.6,0.5-1.3,1-2,1.6c0,0-0.1,0.1-0.1,0.1c-1.2,1-2.4,2.1-3.7,3.2c-3.5,3.2-7.5,7.1-12,11.9c-0.5,0.5-1,1-1.5,1.6
				c-3.4,3.7-7.1,7.8-11.1,12.5c-0.1,0.1-0.2,0.2-0.3,0.4c-0.1,0.1-0.2,0.2-0.3,0.4c-0.2,0.2-0.4,0.5-0.6,0.7
				c-2.7,3.2-5.5,6.6-8.5,10.3c-0.5,0.6-1,1.3-1.5,1.9c-0.6,0.8-1.3,1.6-2,2.4c-0.4,0.5-0.8,1-1.2,1.5l1.4-1.3l2.2-2l1.8-1.6
				l11.7-10.4l0.6-0.5l0.3-0.3l0.3-0.3l0.9-0.8l4.6-4.1l9.3-8.9l-8.8,9.4l-4,4.6L43,41.5l-0.3,0.3l-0.3,0.3l-0.5,0.6L31,55.2
				L29.5,57l-1.9,2.2L26,61l-5.1,5.9l5.9-5.1l1.8-1.6l2.2-1.9l1.8-1.6l12.5-10.9l0.6-0.5l0.3-0.3l0.3-0.3l0.6-0.6l4.6-4l9.4-8.8
				l-8.9,9.3l0,0l-4.1,4.6l-0.8,0.9l-0.3,0.3l-0.3,0.3l-0.5,0.6L35.7,59.2L34.2,61l-1.9,2.1l-1.4,1.5c0.6-0.5,1.1-0.9,1.7-1.3
				c0.8-0.6,1.5-1.2,2.3-1.8c0.6-0.5,1.3-1,1.9-1.5c3.7-3,7.1-5.8,10.3-8.5c0.2-0.2,0.5-0.4,0.7-0.6c0.1-0.1,0.2-0.2,0.4-0.3
				c0.1-0.1,0.2-0.2,0.4-0.3c4.7-4,8.8-7.7,12.5-11.1c0.5-0.5,1.1-1,1.6-1.5C67.4,33,71.3,29,74.5,25.5z M75.9,19.3
				c-1,1-2.4,1.5-3.7,1.5c-1.3,0-2.7-0.5-3.7-1.5c-1-1-1.5-2.3-1.5-3.7c0-1.4,0.5-2.7,1.5-3.7c0.1-0.1,0.2-0.1,0.3-0.2
				c0.7-0.6,1.5-1,2.4-1.2c1.7-0.3,3.5,0.1,4.8,1.4c1,1,1.5,2.3,1.5,3.7c0,0.3,0,0.7-0.1,1c-0.2,0.9-0.6,1.7-1.2,2.4
				C76.1,19.1,76,19.2,75.9,19.3z"/>
		</g>
		<g>
			<path class="st2" d="M47.2,52.4c-3,2.5-6.2,5.2-9.6,8c-0.6,0.5-1.3,1-1.9,1.6c-0.8,0.6-1.5,1.2-2.3,1.9c-0.6,0.5-1.3,1-2,1.6
				c-1.1,0.9-2.3,1.8-3.5,2.7c-0.2,0.1-0.4,0.1-0.5,0c-0.1-0.1-0.1-0.4,0-0.5l2.7-3l1.6-1.8l1.9-2.1l1.6-1.7l10.6-11.9l0.6-0.6
				c0-0.1-0.1-0.1-0.1-0.2l-0.6,0.5L33.2,57.3l-1.8,1.6l-2.2,1.9l-1.8,1.6l-10.2,8.8c-0.1,0.1-0.2,0.1-0.3,0.1c-0.1,0-0.2,0-0.3-0.1
				c-0.1-0.1-0.2-0.4,0-0.5l8.8-10.2l1.6-1.8l1.9-2.2l1.6-1.8l10.7-12.4l0.5-0.6c-0.1,0-0.1-0.1-0.2-0.1l-0.6,0.6L29,52.7l-1.8,1.6
				l-2.2,2l-1.8,1.6l-2.9,2.6c-0.2,0.1-0.4,0.1-0.5,0c-0.1-0.1-0.2-0.4,0-0.5c0.9-1.1,1.7-2.2,2.6-3.3c0.5-0.7,1-1.3,1.5-1.9
				c0.7-0.8,1.3-1.7,2-2.5c0.5-0.6,1-1.3,1.6-1.9c2.8-3.4,5.4-6.6,8-9.6c0.2-0.3,0.4-0.5,0.7-0.8c-0.3,0-0.6,0-0.8,0
				c-3.4,0-6.6,1.3-9,3.7c-0.3,0.3-0.7,0.7-1.1,1.3c-0.5,0.6-1,1.4-1.6,2.3c-0.6,0.9-1.3,2-2,3.1c-0.5,0.8-1,1.6-1.5,2.4
				C12.8,64.3,2.6,82.9,0,87.8c1.6-0.9,4.7-2.6,8.6-4.7c0-0.1-0.1-0.1-0.1-0.2c-0.1-0.2-0.1-0.4-0.1-0.5c-0.1-0.6-0.1-1.3,0-2
				c0.1-0.8,0.4-1.6,0.8-2.3c0.4-0.8,1-1.4,1.6-1.9c0.6-0.5,1.4-0.9,2.2-1.3c0.9-0.3,1.8-0.5,2.8-0.5c1.3,0,2.6,0.2,3.9,0.6
				c0.4-0.3,0.8-0.4,1.3-0.4h1.5h1.6c4.1-2.4,8.1-4.7,11.5-6.8c0.8-0.5,1.7-1,2.4-1.5c1-0.7,2-1.3,2.8-1.8c0.9-0.6,1.7-1.1,2.3-1.6
				c0.6-0.4,1-0.8,1.3-1.1c2.4-2.4,3.7-5.6,3.7-9c0-0.3,0-0.6,0-0.8C47.7,51.9,47.4,52.2,47.2,52.4z"/>
			<path class="st2" d="M75.1,14c-0.1-0.3-0.3-0.5-0.6-0.8c-0.2-0.2-0.5-0.4-0.8-0.6c-1.1-0.6-2.4-0.5-3.4,0.2
				c-0.2,0.1-0.3,0.2-0.5,0.4c-1.3,1.3-1.3,3.4,0,4.7c1.3,1.3,3.4,1.3,4.7,0c0.2-0.2,0.3-0.3,0.4-0.5C75.7,16.4,75.7,15,75.1,14z"/>
		</g>
	</g>
	<g>
		<path class="st1" d="M31.1,92.3l0.5-1l2-14.3L33.4,76h7.1l1.2,1.3l-1.1,7.4l-1.6,1.4l0.5,5.1l0.3,1.1h-3.4l0.4-1l-0.5-4.9
			l-0.2-0.3h-0.9L35,86.5l-0.7,4.8l0.2,1H31.1z M37.8,83.4l0.4-0.3l0.6-4.1l-0.3-0.3h-2.1L36,79l-0.6,4.1l0.3,0.3H37.8z"/>
		<path class="st1" d="M41.5,92.3l0.5-1.1L44,77l-0.2-1h8.2l0.1,3l-1.1-0.3h-4.2L46.4,79l-0.5,3.4l0.3,0.3h1.4l1.1-0.3l-0.5,3.4
			l-1-0.3h-1.4l-0.4,0.3l-0.5,3.5l0.3,0.3h4.2l1.2-0.3l-0.9,3.1H41.5z"/>
		<path class="st1" d="M62.3,79l-1.1-0.3h-2L58.8,79l-1.7,12.3l0.2,1h-3.4l0.5-1L56.1,79l-0.3-0.3h-2.1L52.6,79l0.9-3.1h8.8L62.3,79
			z"/>
		<path class="st1" d="M61.6,92.3l0.5-1l2-14.3L63.9,76H71l1.2,1.3l-1.1,7.4l-1.6,1.4l0.5,5.1l0.3,1.1h-3.4l0.4-1l-0.5-4.9l-0.2-0.3
			h-0.9l-0.4,0.3l-0.7,4.8l0.2,1H61.6z M68.3,83.4l0.4-0.3l0.6-4.1l-0.3-0.3h-2.1L66.5,79l-0.6,4.1l0.3,0.3H68.3z"/>
		<path class="st1" d="M82.4,77.3L80.5,91l-1.5,1.4h-5.4L72.3,91l1.9-13.7l1.6-1.3h5.4L82.4,77.3z M79.1,78.7H77L76.7,79l-1.4,10.3
			l0.3,0.3h2.1l0.4-0.3L79.4,79L79.1,78.7z"/>
		<path class="st1" d="M82.5,91l1.9-13.7L86,76h5.4l1.2,1.3l-0.4,2.8l0.2,1H89l0.5-1l0.2-1.1l-0.3-0.3h-2.1L86.9,79l-1.4,10.3
			l0.3,0.3h2.1l0.3-0.3l0.4-2.9h-0.8l-0.2-2.8H92l-0.5,1.1L90.7,91l-1.5,1.4h-5.4L82.5,91z"/>
		<path class="st1" d="M92.5,92.3l0.5-1L95,77L94.8,76h7.1l1.2,1.3l-1.1,7.4l-1.6,1.4l0.5,5.1l0.3,1.1h-3.4l0.4-1l-0.5-4.9l-0.2-0.3
			h-0.9l-0.4,0.3l-0.7,4.8l0.2,1H92.5z M99.2,83.4l0.4-0.3l0.6-4.1l-0.3-0.3h-2.1L97.4,79l-0.6,4.1l0.3,0.3H99.2z"/>
		<path class="st1" d="M113.1,92.3h-3.4l0.3-0.6l-0.2-2.5l-0.3-0.3h-2.7l-0.4,0.3l-1,2.5l0.2,0.6h-3.4l0.7-1.1l5.4-14.3l-0.2-0.9
			h3.7l-0.4,0.9l1.3,14.3L113.1,92.3z M107.7,86.1h1.6l0.3-0.2l-0.3-5.2l-1.8,5.2L107.7,86.1z"/>
		<path class="st1" d="M116.4,76h7.1l1.2,1.3L122.8,91l-1.6,1.4h-7.1l0.5-1.1l2-14.3L116.4,76z M117.6,89.3l0.3,0.3h2.1l0.4-0.3
			l1.4-10.3l-0.3-0.3h-2.1L119,79L117.6,89.3z"/>
		<path class="st1" d="M124.5,92.3l0.5-1.1l2-14.3l-0.2-1h8.2l0.1,3l-1.1-0.3h-4.2l-0.4,0.3l-0.5,3.4l0.3,0.3h1.4l1.1-0.3l-0.5,3.4
			l-1-0.3h-1.4l-0.4,0.3l-0.5,3.5l0.3,0.3h4.2l1.2-0.3l-0.9,3.1H124.5z"/>
	</g>
	<g>
		<path class="st2" d="M34.6,94.3l-0.7,5.2l-0.6,0.5h-2.1l-0.5-0.5l0.7-5.2l0.6-0.5h2.1L34.6,94.3z M33.3,94.8h-0.8l-0.1,0.1
			l-0.5,3.9L32,99h0.8l0.1-0.1l0.5-3.9L33.3,94.8z"/>
		<path class="st2" d="M35.8,100h-1.3l0.2-0.4l0.8-5.4l-0.1-0.4h1.2l1,3.8l0.5-3.4l-0.1-0.4h1.3L39,94.2l-0.8,5.4l0.1,0.4h-1.2
			l-1-3.8l-0.5,3.4L35.8,100z"/>
		<path class="st2" d="M43.9,99.6l0,0.4h-1.4l0.1-0.4L42.5,96l-1.2,3.6l0,0.4h-1.4l0.1-0.4l-0.4-5.2l-0.1-0.6h1.3L40.7,94l0.2,3.8
			l1.3-3.7l0-0.3h1.3l-0.1,0.3l0.2,3.7l1.3-3.8l-0.1-0.2h1.3l-0.3,0.6L43.9,99.6z"/>
		<path class="st2" d="M48.8,100h-1.3l0.1-0.2l-0.1-0.9l-0.1-0.1h-1l-0.1,0.1l-0.4,0.9l0.1,0.2h-1.3l0.3-0.4l2-5.4l-0.1-0.4h1.4
			l-0.2,0.4l0.5,5.4L48.8,100z M46.7,97.6h0.6l0.1-0.1l-0.1-2L46.7,97.6L46.7,97.6z"/>
		<path class="st2" d="M49.2,100l0.2-0.4l0.8-5.4L50,93.8h2.7l0.5,0.5l-0.4,2.8l-0.6,0.5l0.2,1.9l0.1,0.4h-1.3l0.1-0.4l-0.2-1.9
			l-0.1-0.1h-0.3l-0.1,0.1l-0.3,1.8l0.1,0.4H49.2z M51.7,96.6l0.1-0.1l0.2-1.6L52,94.8h-0.8L51,94.9l-0.2,1.6l0.1,0.1H51.7z"/>
		<path class="st2" d="M54,93.8h2.7l0.5,0.5l-0.7,5.2l-0.6,0.5h-2.7l0.2-0.4l0.8-5.4L54,93.8z M54.4,98.8l0.1,0.1h0.8l0.1-0.1
			l0.5-3.9l-0.1-0.1h-0.8L55,94.9L54.4,98.8z"/>
		<path class="st2" d="M63.2,94.9l-0.4-0.1H62l-0.1,0.1l-0.7,4.7l0.1,0.4H60l0.2-0.4l0.7-4.7l-0.1-0.1H60l-0.4,0.1l0.4-1.2h3.3
			L63.2,94.9z"/>
		<path class="st2" d="M66.9,94.3l-0.7,5.2l-0.6,0.5h-2.1l-0.5-0.5l0.7-5.2l0.6-0.5h2.1L66.9,94.3z M65.7,94.8h-0.8l-0.1,0.1
			l-0.5,3.9l0.1,0.1h0.8l0.1-0.1l0.5-3.9L65.7,94.8z"/>
		<path class="st2" d="M71.2,99.6l0.1,0.4H70l0.2-0.4l0.2-1.8l-0.8-3.6l-0.2-0.5H71L70.8,94l0.4,2.3l1-2.3l-0.1-0.2h1.5l-0.4,0.5
			l-1.8,3.6L71.2,99.6z"/>
		<path class="st2" d="M73.1,100l0.2-0.4l0.8-5.4L74,93.8h3.1l0,1.1l-0.4-0.1h-1.6L75,94.9l-0.2,1.3l0.1,0.1h0.5l0.4-0.1l-0.2,1.3
			l-0.4-0.1h-0.5l-0.1,0.1l-0.2,1.3l0.1,0.1h1.6l0.4-0.1l-0.4,1.2H73.1z"/>
		<path class="st2" d="M80.8,95.7h-1.3l0.2-0.4l0.1-0.4l-0.1-0.1h-0.8l-0.1,0.1l-0.2,1.3l0.1,0.1H80l0.4,0.5l-0.4,2.6l-0.6,0.5h-2.1
			L77,99.5l0.1-1L77.1,98h1.3l-0.2,0.4l-0.1,0.4l0.1,0.1H79l0.1-0.1l0.2-1.3l-0.1-0.1h-1.4l-0.5-0.5l0.4-2.6l0.6-0.5h2.1l0.4,0.5
			l-0.1,1.1L80.8,95.7z"/>
		<path class="st2" d="M85,94.9l-0.4-0.1h-0.8l-0.1,0.1L83,99.6l0.1,0.4h-1.3l0.2-0.4l0.7-4.7l-0.1-0.1h-0.8l-0.4,0.1l0.4-1.2H85
			L85,94.9z"/>
		<path class="st2" d="M84.7,100l0.2-0.4l0.8-5.4l-0.1-0.4h3.1l0,1.1l-0.4-0.1h-1.6l-0.1,0.1l-0.2,1.3l0.1,0.1H87l0.4-0.1l-0.2,1.3
			l-0.4-0.1h-0.5l-0.1,0.1L86,98.8l0.1,0.1h1.6l0.4-0.1l-0.4,1.2H84.7z"/>
		<path class="st2" d="M88.4,100l0.2-0.4l0.8-5.4l-0.1-0.4H92l0.5,0.5l-0.4,2.8l-0.6,0.5l0.2,1.9l0.1,0.4h-1.3l0.1-0.4l-0.2-1.9
			l-0.1-0.1H90l-0.1,0.1l-0.3,1.8l0.1,0.4H88.4z M91,96.6l0.1-0.1l0.2-1.6l-0.1-0.1h-0.8l-0.1,0.1l-0.2,1.6l0.1,0.1H91z"/>
		<path class="st2" d="M94.7,99.6l0.1,0.4h-1.3l0.2-0.4l0.2-1.8l-0.8-3.6l-0.2-0.5h1.5L94.2,94l0.4,2.3l1-2.3l-0.1-0.2h1.5l-0.4,0.5
			l-1.8,3.6L94.7,99.6z"/>
		<path class="st2" d="M96.6,100l0.2-0.4l0.8-5.4l-0.1-0.4h3.1l0,1.1l-0.4-0.1h-1.6l-0.1,0.1l-0.2,1.3l0.1,0.1h0.5l0.4-0.1l-0.2,1.3
			l-0.4-0.1h-0.5l-0.1,0.1l-0.2,1.3L98,99h1.6l0.4-0.1l-0.4,1.2H96.6z"/>
		<path class="st2" d="M104.2,100h-1.3l0.1-0.2l-0.1-0.9l-0.1-0.1h-1l-0.1,0.1l-0.4,0.9l0.1,0.2H100l0.3-0.4l2-5.4l-0.1-0.4h1.4
			l-0.2,0.4l0.5,5.4L104.2,100z M102.2,97.6h0.6l0.1-0.1l-0.1-2L102.2,97.6L102.2,97.6z"/>
		<path class="st2" d="M104.6,100l0.2-0.4l0.8-5.4l-0.1-0.4h2.7l0.5,0.5l-0.4,2.8l-0.6,0.5l0.2,1.9l0.1,0.4h-1.3l0.1-0.4l-0.2-1.9
			l-0.1-0.1h-0.3l-0.1,0.1l-0.3,1.8l0.1,0.4H104.6z M107.1,96.6l0.1-0.1l0.2-1.6l-0.1-0.1h-0.8l-0.1,0.1l-0.2,1.6l0.1,0.1H107.1z"/>
	</g>
</g>
</svg>
